<?xml version="1.0" encoding="UTF-8"?>
<svg width="12px" height="13px" viewBox="0 0 12 13" version="1.1" xmlns="http://www.w3.org/2000/svg" xmlns:xlink="http://www.w3.org/1999/xlink">
    <!-- Generator: Sketch 41.2 (35397) - http://www.bohemiancoding.com/sketch -->
    <title>Group 15</title>
    <desc>Created with Sketch.</desc>
    <defs></defs>
    <g id="Page-1" stroke="none" stroke-width="1" fill="none" fill-rule="evenodd">
        <g id="Group-15" transform="translate(-1.000000, 0.000000)">
            <circle id="Oval-5" fill-opacity="0" fill="#4265E2" cx="6.5" cy="6.5" r="6.5"></circle>
            <g id="Group-14" transform="translate(1.000000, 0.000000)" fill="#FFFFFF">
                <circle id="Oval-4" cx="5.5" cy="6.5" r="2.5"></circle>
                <path d="M0.85746754,1.95061329 C2.03721035,0.746868224 3.68138497,0 5.5,0 C9.08985087,0 12,2.91014913 12,6.5 C12,10.0898509 9.08985087,13 5.5,13 C3.76117346,13 2.18181659,12.3172292 1.01540229,11.2051605 L2.43020061,9.79036214 C3.23418367,10.5407746 4.31346292,11 5.5,11 C7.98528137,11 10,8.98528137 10,6.5 C10,4.01471863 7.98528137,2 5.5,2 C4.23366936,2 3.08950762,2.52306722 2.27178533,3.36493108 L0.85746754,1.95061329 Z" id="Combined-Shape"></path>
            </g>
        </g>
    </g>
</svg>